<?xml version="1.0" encoding="UTF-8" standalone="no"?>
<svg width="520px" height="520px" viewBox="0 0 520 520" version="1.1" xmlns="http://www.w3.org/2000/svg" xmlns:xlink="http://www.w3.org/1999/xlink" xmlns:sketch="http://www.bohemiancoding.com/sketch/ns">
    <title>luagi_color_logo</title>
    <description>Created with Sketch (http://www.bohemiancoding.com/sketch)</description>
    <defs></defs>
    <g id="Page-1" stroke="none" stroke-width="1" fill="none" fill-rule="evenodd" sketch:type="MSPage">
        <path d="M261,511 C399.071194,511 511,399.071194 511,261 C511,122.928806 399.071194,11 261,11 C122.928806,11 11,122.928806 11,261 C11,399.071194 122.928806,511 261,511 Z" id="Oval-4" fill="#86B16A" sketch:type="MSShapeGroup"></path>
        <path d="M311,461 C421.456955,461 511,371.456955 511,261 C511,150.543045 421.456955,61 311,61 C200.543045,61 111,150.543045 111,261 C111,371.456955 200.543045,461 311,461 Z" id="Oval-4" fill="#BA5828" sketch:type="MSShapeGroup"></path>
        <g id="logo" sketch:type="MSLayerGroup" transform="translate(196.000000, 70.000000)" fill="#86B16A">
            <path d="M90.5,333 C111.762964,333 129,315.762964 129,294.5 C129,273.237036 111.762964,256 90.5,256 C69.2370361,256 52,273.237036 52,294.5 C52,315.762964 69.2370361,333 90.5,333 Z M191.5,231 C212.762964,231 230,213.762964 230,192.5 C230,171.237036 212.762964,154 191.5,154 C170.237036,154 153,171.237036 153,192.5 C153,213.762964 170.237036,231 191.5,231 Z M90.5,132 C111.762964,132 129,114.762964 129,93.5 C129,72.2370361 111.762964,55 90.5,55 C69.2370361,55 52,72.2370361 52,93.5 C52,114.762964 69.2370361,132 90.5,132 Z" id="Oval-6" sketch:type="MSShapeGroup"></path>
            <rect id="Rectangle-7" sketch:type="MSShapeGroup" x="76" y="121" width="29" height="138"></rect>
            <rect id="Rectangle-7" sketch:type="MSShapeGroup" transform="translate(99.500000, 99.500000) rotate(-45.000000) translate(-99.500000, -99.500000) " x="85" y="-27" width="29" height="253"></rect>
        </g>
    </g>
</svg>